<svg width="40" height="40" viewBox="0 0 40 40" fill="none" xmlns="http://www.w3.org/2000/svg">
<path d="M8.98095 16.275C9.77891 13.9157 11.3189 11.863 13.3813 10.4096C15.4436 8.95628 17.9229 8.17654 20.4656 8.18165C23.3478 8.18165 25.9537 9.18164 28.0003 10.8183L33.9558 4.99999C30.3266 1.90833 25.6758 0 20.4656 0C12.3987 0 5.45405 4.49666 2.11475 11.0833L8.98095 16.275Z" fill="#EA4335"/>
<path d="M27.3559 30.0216C25.4969 31.1933 23.1366 31.8183 20.4658 31.8183C17.9333 31.8233 15.4633 31.0498 13.4056 29.6072C11.3478 28.1646 9.80653 26.1259 8.99995 23.7799L2.10986 28.8916C3.8004 32.2354 6.41662 35.0489 9.66136 37.0125C12.9061 38.9761 16.6493 40.0111 20.4658 39.9999C25.4679 39.9999 30.2466 38.2616 33.8264 34.9999L27.3576 30.0216H27.3559Z" fill="#34A853"/>
<path d="M33.8262 34.9999C37.5697 31.5866 40 26.5066 40 19.9999C40 18.8166 39.8141 17.5449 39.5361 16.3633H20.4656V24.0916H31.442C30.9013 26.6899 29.4466 28.7016 27.3574 30.0216L33.8262 34.9999Z" fill="#4A90E2"/>
<path d="M8.99994 23.7799C8.58271 22.5614 8.37075 21.2848 8.37233 19.9999C8.37233 18.6966 8.58551 17.4449 8.98118 16.2749L2.11498 11.0833C0.710317 13.8544 -0.0137801 16.9075 0.000198609 19.9999C0.000198609 23.1999 0.759131 26.2166 2.10986 28.8916L8.99994 23.7799Z" fill="#FBBC05"/>
</svg>
