<svg width="15" height="13" viewBox="0 0 15 13" fill="none" xmlns="http://www.w3.org/2000/svg">
<path d="M11.202 1.39375e-07C11.2845 -5.99423e-05 11.3658 0.0193057 11.4394 0.0565285C11.513 0.0937514 11.5768 0.147785 11.6256 0.214252L11.6641 0.275167L13.9488 4.49579L13.9754 4.56091L13.9838 4.58891L13.9978 4.66033L14.002 4.72615C14.002 4.77346 13.9957 4.82057 13.9831 4.86618L13.9502 4.9537L13.9236 5.00202C13.9081 5.02724 13.8905 5.05113 13.8711 5.07343L13.9131 5.01882L13.8956 5.04333L7.419 12.3986C7.36522 12.4701 7.29348 12.5262 7.21105 12.5611L7.14244 12.5842L7.08782 12.5961L7.0017 12.6031L6.93168 12.5989L6.84906 12.5807C6.80628 12.5684 6.76531 12.5505 6.72723 12.5274L6.72093 12.5225C6.6877 12.5021 6.65713 12.4777 6.62991 12.4497L0.12533 5.06573L0.107126 5.04333L0.0791192 5.00202C0.0394478 4.93795 0.0141277 4.86605 0.00490117 4.79126L0 4.72615L0.00210052 4.67994L0.0112027 4.61762C0.0155651 4.59723 0.021177 4.57712 0.0280068 4.55741L0.0434106 4.5161L0.0630153 4.47619L2.33857 0.275167C2.3778 0.20267 2.43355 0.140427 2.5013 0.0934746C2.56905 0.0465222 2.64691 0.0161793 2.72856 0.00490131L2.79998 1.39375e-07H11.202ZM9.10011 5.25128H4.89979L7.0003 10.6335L9.10011 5.25128ZM3.77322 5.25128H1.68671L5.43332 9.50411L3.77322 5.25128ZM12.3139 5.25128H10.2281L8.57008 9.50131L12.3139 5.25128ZM4.88089 1.05026H3.11226L1.40524 4.20102H3.87264L4.88089 1.05026ZM8.01765 1.05026H5.98365L4.97471 4.20102H9.02519L8.01695 1.05026H8.01765ZM10.8883 1.05026H9.12042L10.1287 4.20102H12.5947L10.889 1.05026H10.8883Z" fill="#404040"/>
</svg>
