<svg width="26" height="39" viewBox="0 0 26 39" fill="none" xmlns="http://www.w3.org/2000/svg">
<path d="M19.5 26C23.0899 26 26 23.0899 26 19.5C26 15.9101 23.0899 13 19.5 13C15.9101 13 13 15.9101 13 19.5C13 23.0899 15.9101 26 19.5 26Z" fill="#19BCFE"/>
<path fill-rule="evenodd" clip-rule="evenodd" d="M6.5 39C8.22391 39 9.87721 38.3152 11.0962 37.0962C12.3152 35.8772 13 34.2239 13 32.5V26H6.5C4.77609 26 3.12279 26.6848 1.90381 27.9038C0.68482 29.1228 0 30.7761 0 32.5C0 34.2239 0.68482 35.8772 1.90381 37.0962C3.12279 38.3152 4.77609 39 6.5 39Z" fill="#09CF83"/>
<path fill-rule="evenodd" clip-rule="evenodd" d="M6.5 26H13V13H6.5C4.77609 13 3.12279 13.6848 1.90381 14.9038C0.68482 16.1228 0 17.7761 0 19.5C0 21.2239 0.68482 22.8772 1.90381 24.0962C3.12279 25.3152 4.77609 26 6.5 26Z" fill="#A259FF"/>
<path fill-rule="evenodd" clip-rule="evenodd" d="M6.5 13H13V0H6.5C4.77609 0 3.12279 0.68482 1.90381 1.90381C0.68482 3.12279 0 4.77609 0 6.5C0 8.22391 0.68482 9.87721 1.90381 11.0962C3.12279 12.3152 4.77609 13 6.5 13Z" fill="#F24E1E"/>
<path fill-rule="evenodd" clip-rule="evenodd" d="M19.5 13H13V0H19.5C21.2239 0 22.8772 0.68482 24.0962 1.90381C25.3152 3.12279 26 4.77609 26 6.5C26 8.22391 25.3152 9.87721 24.0962 11.0962C22.8772 12.3152 21.2239 13 19.5 13Z" fill="#FF7262"/>
</svg>
