<svg width="40" height="40" viewBox="0 0 40 40" fill="none" xmlns="http://www.w3.org/2000/svg">
<rect opacity="0.15" x="0.5" y="0.5" width="39" height="39" rx="7.5" fill="#197BBD" stroke="#197BBD"/>
<path d="M29.0272 18.8583C28.4591 14.4329 24.628 11 20 11C16.4172 11 13.305 13.0713 11.8841 16.3357C9.0917 17.1611 7 19.7686 7 22.5714C7 26.1161 9.9159 29 13.5 29H27.8C30.6678 29 33 26.6934 33 23.8571C32.998 22.7046 32.6056 21.586 31.8855 20.6799C31.1654 19.7738 30.1591 19.1325 29.0272 18.8583ZM21.3 22.5714V26.4286H18.7V22.5714H14.8L20 16.1429L25.2 22.5714H21.3Z" fill="#197BBD"/>
</svg>
