<svg width="24" height="24" viewBox="0 0 24 24" fill="none" xmlns="http://www.w3.org/2000/svg">
<path d="M18.041 7.5293C18.041 5.938 17.4089 4.41187 16.2837 3.28666C15.1584 2.16144 13.6323 1.5293 12.041 1.5293C10.4497 1.5293 8.92359 2.16144 7.79838 3.28666C6.67316 4.41187 6.04102 5.938 6.04102 7.5293C6.04102 14.5293 3.04102 16.5293 3.04102 16.5293H21.041C21.041 16.5293 18.041 14.5293 18.041 7.5293Z" fill="#E3E3E3"/>
<path d="M13.7715 20.5293C13.5957 20.8324 13.3434 21.0839 13.0397 21.2588C12.7361 21.4337 12.3919 21.5258 12.0415 21.5258C11.6911 21.5258 11.3469 21.4337 11.0433 21.2588C10.7397 21.0839 10.4873 20.8324 10.3115 20.5293" stroke="#E3E3E3" stroke-width="2" stroke-linecap="round" stroke-linejoin="round"/>
</svg>
