<svg width="35" height="35" viewBox="0 0 35 35" fill="none" xmlns="http://www.w3.org/2000/svg">
<ellipse cx="17.49" cy="17.5" rx="17.49" ry="17.5" fill="#FFC145"/>
<mask id="mask0" mask-type="alpha" maskUnits="userSpaceOnUse" x="0" y="0" width="35" height="35">
<circle cx="17.5" cy="17.5" r="17.5" fill="#FFC145"/>
</mask>
<g mask="url(#mask0)">
</g>
<mask id="mask1" mask-type="alpha" maskUnits="userSpaceOnUse" x="0" y="0" width="35" height="35">
<ellipse cx="17.49" cy="17.5" rx="17.49" ry="17.5" fill="#FFC145"/>
</mask>
<g mask="url(#mask1)">
<path d="M28.6171 37.0849V33.51C28.6171 31.6138 28.0478 29.7952 27.0343 28.4544C26.0208 27.1135 24.6462 26.3603 23.2129 26.3603H12.4043C10.971 26.3603 9.59638 27.1135 8.58288 28.4544C7.56938 29.7952 7 31.6138 7 33.51V37.0849" fill="#197BBD"/>
<path d="M17.8071 20.9521C20.7918 20.9521 23.2114 18.5311 23.2114 15.5447C23.2114 12.5583 20.7918 10.1374 17.8071 10.1374C14.8224 10.1374 12.4028 12.5583 12.4028 15.5447C12.4028 18.5311 14.8224 20.9521 17.8071 20.9521Z" fill="white"/>
</g>
</svg>
